<mxfile host="app.diagrams.net" modified="2021-04-01T16:35:21.245Z" agent="5.0 (Windows NT 10.0; Win64; x64) AppleWebKit/537.36 (KHTML, like Gecko) Chrome/89.0.4389.114 Safari/537.36" etag="S5pBMNgLuDUV5j4tZTp4" version="14.5.4" type="github">
  <diagram id="odK7wv015zt0Xf4ZPR1S" name="Page-1">
    <mxGraphModel dx="867" dy="531" grid="1" gridSize="10" guides="1" tooltips="1" connect="1" arrows="1" fold="1" page="1" pageScale="1" pageWidth="850" pageHeight="1100" math="0" shadow="0">
      <root>
        <mxCell id="0" />
        <mxCell id="1" parent="0" />
        <mxCell id="-s5shz5-Mm162O3PMTNs-1" value="Start" style="ellipse;whiteSpace=wrap;html=1;" vertex="1" parent="1">
          <mxGeometry x="330" y="90" width="110" height="60" as="geometry" />
        </mxCell>
        <mxCell id="-s5shz5-Mm162O3PMTNs-3" value="" style="endArrow=classic;html=1;exitX=0.525;exitY=1.133;exitDx=0;exitDy=0;exitPerimeter=0;" edge="1" parent="1" source="-s5shz5-Mm162O3PMTNs-1" target="-s5shz5-Mm162O3PMTNs-4">
          <mxGeometry width="50" height="50" relative="1" as="geometry">
            <mxPoint x="400" y="300" as="sourcePoint" />
            <mxPoint x="388" y="220" as="targetPoint" />
          </mxGeometry>
        </mxCell>
        <mxCell id="-s5shz5-Mm162O3PMTNs-4" value="Input" style="rounded=0;whiteSpace=wrap;html=1;" vertex="1" parent="1">
          <mxGeometry x="330" y="190" width="118" height="60" as="geometry" />
        </mxCell>
        <mxCell id="-s5shz5-Mm162O3PMTNs-5" value="" style="endArrow=classic;html=1;exitX=0.5;exitY=1;exitDx=0;exitDy=0;" edge="1" parent="1" source="-s5shz5-Mm162O3PMTNs-4" target="-s5shz5-Mm162O3PMTNs-6">
          <mxGeometry width="50" height="50" relative="1" as="geometry">
            <mxPoint x="400" y="300" as="sourcePoint" />
            <mxPoint x="389" y="300" as="targetPoint" />
          </mxGeometry>
        </mxCell>
        <mxCell id="-s5shz5-Mm162O3PMTNs-6" value="Input collector" style="rounded=0;whiteSpace=wrap;html=1;" vertex="1" parent="1">
          <mxGeometry x="329" y="270" width="120" height="60" as="geometry" />
        </mxCell>
        <mxCell id="-s5shz5-Mm162O3PMTNs-8" value="" style="endArrow=classic;html=1;exitX=0.5;exitY=1;exitDx=0;exitDy=0;" edge="1" parent="1" source="-s5shz5-Mm162O3PMTNs-6" target="-s5shz5-Mm162O3PMTNs-9">
          <mxGeometry width="50" height="50" relative="1" as="geometry">
            <mxPoint x="400" y="300" as="sourcePoint" />
            <mxPoint x="389" y="370" as="targetPoint" />
          </mxGeometry>
        </mxCell>
        <mxCell id="-s5shz5-Mm162O3PMTNs-9" value="Is 0?" style="rhombus;whiteSpace=wrap;html=1;" vertex="1" parent="1">
          <mxGeometry x="320" y="370" width="140" height="110" as="geometry" />
        </mxCell>
        <mxCell id="-s5shz5-Mm162O3PMTNs-10" value="NO" style="endArrow=classic;html=1;exitX=0;exitY=0.5;exitDx=0;exitDy=0;" edge="1" parent="1" source="-s5shz5-Mm162O3PMTNs-9">
          <mxGeometry width="50" height="50" relative="1" as="geometry">
            <mxPoint x="400" y="450" as="sourcePoint" />
            <mxPoint x="210" y="425" as="targetPoint" />
          </mxGeometry>
        </mxCell>
        <mxCell id="-s5shz5-Mm162O3PMTNs-11" value="" style="endArrow=classic;html=1;" edge="1" parent="1">
          <mxGeometry width="50" height="50" relative="1" as="geometry">
            <mxPoint x="220" y="420" as="sourcePoint" />
            <mxPoint x="220" y="220" as="targetPoint" />
          </mxGeometry>
        </mxCell>
        <mxCell id="-s5shz5-Mm162O3PMTNs-12" value="" style="endArrow=classic;html=1;entryX=0;entryY=0.5;entryDx=0;entryDy=0;" edge="1" parent="1" target="-s5shz5-Mm162O3PMTNs-4">
          <mxGeometry width="50" height="50" relative="1" as="geometry">
            <mxPoint x="220" y="220" as="sourcePoint" />
            <mxPoint x="450" y="400" as="targetPoint" />
          </mxGeometry>
        </mxCell>
        <mxCell id="-s5shz5-Mm162O3PMTNs-13" value="" style="endArrow=classic;html=1;exitX=0.5;exitY=1;exitDx=0;exitDy=0;" edge="1" parent="1" source="-s5shz5-Mm162O3PMTNs-9" target="-s5shz5-Mm162O3PMTNs-14">
          <mxGeometry width="50" height="50" relative="1" as="geometry">
            <mxPoint x="400" y="450" as="sourcePoint" />
            <mxPoint x="390" y="520" as="targetPoint" />
          </mxGeometry>
        </mxCell>
        <mxCell id="-s5shz5-Mm162O3PMTNs-14" value="Output calculation and printing out" style="rounded=0;whiteSpace=wrap;html=1;" vertex="1" parent="1">
          <mxGeometry x="320" y="520" width="140" height="70" as="geometry" />
        </mxCell>
        <mxCell id="-s5shz5-Mm162O3PMTNs-15" value="" style="endArrow=classic;html=1;exitX=0.5;exitY=1;exitDx=0;exitDy=0;" edge="1" parent="1" source="-s5shz5-Mm162O3PMTNs-14" target="-s5shz5-Mm162O3PMTNs-16">
          <mxGeometry width="50" height="50" relative="1" as="geometry">
            <mxPoint x="400" y="440" as="sourcePoint" />
            <mxPoint x="390" y="620" as="targetPoint" />
          </mxGeometry>
        </mxCell>
        <mxCell id="-s5shz5-Mm162O3PMTNs-16" value="End" style="ellipse;whiteSpace=wrap;html=1;" vertex="1" parent="1">
          <mxGeometry x="338" y="610" width="110" height="50" as="geometry" />
        </mxCell>
      </root>
    </mxGraphModel>
  </diagram>
</mxfile>
